<svg xmlns="http://www.w3.org/2000/svg" width="172" height="21.282"><path fill="#FFF" d="M116.091 8.701c-1.339-1.015-4.004-1.678-5.27-2.208-1.037-.436-2.533-.752-2.533-2.393 0-1.555 1.439-3.086 3.027-3.086 2.123 0 3.111 3.357 3.46 4.278.092.243.304.176.396.023.043-.077 2.523-3.608 2.627-3.79.096-.179.159-.548-.004-.652-.324-.208-.63.022-.703.131-.071.113-1.293 1.695-1.293 1.695S114.167 0 111.284 0c-2.612 0-4.773 2.125-4.945 4.041-.162 1.783.977 3.283 4.03 4.587 3.01 1.284 4.751 1.891 4.786 3.68.036 1.582-1.328 3.683-3.432 3.683-2.02 0-3.354-2.128-3.603-3.388a2.265 2.265 0 0 1 .253-1.534c.491-.714.84-1.219.899-1.299.231-.309-.97-.518-1.458.157-.491.674-4.567 6.521-4.816 6.885-.242.362-.214.707-.014.872.202.164.607.183 1.033-.339.179-.223 1.106-1.558 2.135-3.047l.25.199s2.566 2.431 5.32 2.431c2.757 0 5.289-2.065 5.885-3.8.514-1.492.018-3.266-1.516-4.427M46.454 6.608c0-1.706 1.738-5.553 4.153-5.553 2.914 0 3.945 3.626 4.198 4.764.045.213.184.19.299.059.116-.135 3.253-3.736 3.785-4.366.529-.631-.069-1.133-.482-.664-.535.608-2.48 2.672-2.48 2.672S53.808.045 50.351.045c-2.657 0-6.936 2.384-6.936 8.702 0 5.501 3.742 8.107 7.142 8.107 2.093 0 3.58-1.078 3.907-1.446.326-.366-.042-.5-.248-.39-.701.379-1.197.777-2.611.777-2.463 0-3.897-2.247-4.477-3.619-.525-1.24-.662-3.129-.662-3.129h9.783c.364 0 .485.229.485.494l-.019 11.063c0 .426.223.678.574.678.354 0 .73-.615.73-.97V7.824c0-.503-.161-.811-.769-.811H46.835c-.39 0-.381-.393-.381-.405M33.343 7.67c.535.499.824 1.085.824 1.917 0 .261-.198.393-.434.482-.319.122-4.403 1.412-5.212 1.679-.314.104-.481.213-.459.447.034.394.193.893.73 1.582.534.71 1.556 1.304 2.725 1.304 1.071 0 1.801-.259 2.216-.854.095-.139.217-.282.316-.282.143 0 .193.166.193.282 0 .192-.096.454-.169.572-.852 1.212-2.144 1.782-3.529 1.782-2.628 0-4.383-1.95-4.383-4.729 0-1.902 1.024-3.801 2.923-4.657.631-.284 1.435-.428 1.848-.428.853.001 1.803.311 2.411.903m-5.373 3.004c-.01.126.074.26.239.271.304.023 1.615-.519 2.713-.973 1.005-.416 1.365-.673 1.365-1.146 0-.668-.527-1.44-1.597-1.44-1.494.001-2.628 1.893-2.72 3.288M88.247 13.944c-.098 0-.22.144-.315.282-.414.596-1.145.854-2.216.854-1.168 0-2.191-.594-2.726-1.304-.535-.689-.695-1.188-.73-1.582-.02-.234.145-.343.461-.447.808-.267 4.893-1.557 5.211-1.679.237-.089.433-.221.433-.482 0-.832-.29-1.418-.822-1.917-.608-.593-1.558-.903-2.41-.903-.412 0-1.216.144-1.849.428-1.9.856-2.924 2.755-2.924 4.657 0 2.778 1.754 4.729 4.383 4.729 1.387 0 2.678-.57 3.529-1.783.073-.117.171-.379.171-.571-.001-.116-.049-.282-.196-.282m-6.078-3.27c.09-1.395 1.225-3.288 2.718-3.288 1.072 0 1.6.772 1.6 1.44 0 .473-.362.73-1.366 1.146-1.098.454-2.409.995-2.716.973a.247.247 0 0 1-.236-.271M62.372 1.55c1.121-.381 1.85-.523 2.509-.927.071-.048.218.143.218.238-.074.592-.218 2.058-.218 5.241 0 3.467-.05 8.103.071 8.745.099.474.194.761 1.242 1.046.365.095.449.154.449.298 0 .163-.232.221-.523.221-.585 0-1.63-.069-2.068-.069-.559 0-1.633.069-2.143.069-.487 0-.57-.033-.57-.221 0-.169.158-.227.425-.276 1.119-.234 1.168-.761 1.242-1.948.048-.903.171-3.469.171-7.222 0-1.757-.075-3.033-.075-3.745 0-.19.01-.497-.584-.665-.485-.137-.487-.356-.487-.453-.001-.093.073-.261.341-.332M79.323 15.484c-.244.021-1.046.074-1.314.074-.148 0-.342-.096-.365-.973-.025-.454-.072-.619-.072-5.419 0-7.27.095-6.905.217-8.164.028-.212-.122-.378-.194-.378-.096 0-.172.023-.316.07-.633.238-1.923.593-2.483.667-.146.022-.413.193-.413.401 0 .051.227.235.47.286.821.187.893.784.917.903.073.571.147 2.984.024 3.627-.024.118-.098.285-.195.26-.292-.045-.681-.094-1.559-.094-.655 0-2.091.238-3.212.902-1.192.688-2.578 2.044-2.578 4.371 0 1.188.387 2.401 1.167 3.257.754.783 1.875 1.306 3.04 1.306.806 0 2.047-.215 3.167-1.187.049 0 .146.047.146.143 0 .33-.05.758-.05.975 0 .118.141.246.239.246.119 0 .347.015.906-.177.463-.166 1.728-.292 2.188-.361.123-.024.414-.43.414-.593 0-.025-.047-.142-.144-.142m-3.48-2.184c-.025.763-.341 1.522-.39 1.569-.437.31-.998.571-1.776.571-2.095 0-3.456-2.186-3.456-4.087 0-1.33.559-2.543 1.022-2.993.439-.428 1.119-.832 1.898-.832.486 0 1.412.259 2.093.927.292.284.512.711.536.903.073 1.116.098 2.422.073 3.942M91.218 7.576c.806-.263 1.281-.431 1.526-.573.29-.193.411-.286.486-.286.096 0 .19.218.217.286.164.414.229.993.229 1.446 0 .093.122.117.172.093.944-.878 2.019-1.473 2.772-1.473.997 0 1.219.595 1.219.81 0 .046.067.066-.005.186-.265.379-.709.873-.852.946-.055.024-.271-.024-.348-.073-.267-.235-.85-.521-1.336-.521-.415 0-1.109.363-1.353.625-.171.19-.245.402-.245.523 0 .475.124 4.532.146 4.887.05.688.188 1.042.569 1.27.192.118.321.132.686.228.389.119.436.204.436.3 0 .116-.217.212-.584.212-.607 0-.961-.119-2.373-.119-.731 0-1.021.094-1.605.094-.27 0-.513-.094-.513-.282 0-.143.294-.158.487-.227.95-.31 1.023-.629 1.047-2.058V9.335c0-.429-.274-.886-.445-.981-.368-.199-.65-.279-.65-.374a.46.46 0 0 1 .317-.404M130.444 7.576c.806-.263 1.28-.431 1.523-.573.292-.193.411-.286.484-.286.1 0 .196.218.221.286.163.414.229.993.229 1.446 0 .093.12.117.171.093.947-.878 2.021-1.473 2.773-1.473.997 0 1.215.595 1.215.81 0 .046.072.066-.003.186-.266.379-.708.873-.855.946-.048.024-.267-.024-.34-.073-.268-.235-.854-.521-1.34-.521-.41 0-1.113.363-1.354.625-.168.19-.245.402-.245.523 0 .475.125 4.532.149 4.887.05.688.188 1.042.569 1.27.195.118.322.132.686.228.39.119.438.204.438.3 0 .116-.222.212-.584.212-.61 0-.964-.119-2.374-.119-.733 0-1.023.094-1.607.094-.27 0-.514-.094-.514-.282 0-.143.295-.158.487-.227.952-.31 1.023-.629 1.048-2.058V9.335c0-.429-.272-.886-.442-.981-.369-.199-.651-.279-.651-.374a.455.455 0 0 1 .316-.404M127.555 7.361c.246.167.367.571.367.715 0 .379-.708.949-.805.949-.146 0-.56-.189-.947-.452-.803-.57-1.219-.926-2.047-.926-.388 0-1.118.333-1.506.808-.66.712-1.022 1.687-1.022 2.732 0 1.377.535 2.233.632 2.376.605 1 1.801 1.591 3.065 1.591.9 0 1.533-.285 2.166-.713.27-.19.464-.117.464 0 0 .261-.121.5-.32.689-.851.925-2.234 1.472-3.5 1.472-1.534 0-2.825-.781-3.604-1.9-.416-.663-.753-1.781-.753-2.779 0-1.733.948-3.183 2.357-4.11.95-.664 2.534-.996 3.189-.996.733 0 1.803.189 2.264.544M143.098 6.746c-1.63 0-2.848.663-3.604 1.304-.923.761-1.701 1.9-1.701 3.708 0 1.189.756 2.803 1.798 3.636.902.735 2.119 1.234 3.242 1.234 1.091 0 2.042-.263 3.016-.949.902-.57 2.116-2.115 2.116-4.088 0-2.993-2.457-4.845-4.867-4.845m1.703 8.408c-.68.667-1.218.784-1.479.784-1.171 0-2.561-.854-3.166-2.64-.197-.593-.292-1.328-.292-2.111 0-1.238.557-2.471 1.191-3.041.51-.429 1.069-.69 1.581-.69.634 0 1.509.356 2.046.927.924 1.045 1.216 2.401 1.216 3.634-.001 1.023-.488 2.497-1.097 3.137M165.265 11.093c-1.681-.879-2.496-1.5-2.543-2.305-.03-.5.376-1.473 1.376-1.473.806 0 1.437.471 2.038 1.59.139.261.295.404.39.404.197 0 .28-.213.27-.428-.011-.166-.132-.972-.158-1.402-.007-.142-.162-.306-.214-.331s-.521-.215-.794-.262a5.76 5.76 0 0 0-1.252-.142c-.825 0-1.47.212-1.917.497-.889.545-1.258 1.332-1.214 2.14.069 1.116.896 1.946 1.652 2.399.782.477.935.594 1.542.997.78.454 1.15.95 1.191 1.591.024.454-.137 1.024-.484 1.31-.256.187-.634.353-.95.353-.877 0-1.369-.146-2.12-1.354-.163-.264-.299-.38-.498-.38-.141 0-.177.235-.16.5.017.32-.406 1.356-1.797 1.146h-.02c-1.019-.283-1.114-.569-1.211-1.037-.125-.644-.073-5.334-.073-8.803 0-3.183.144-4.649.22-5.24 0-.096-.146-.287-.22-.238-.658.402-1.388.545-2.509.925-.268.071-.341.24-.341.332 0 .095.164.224.601.336.318.08.472.366.472.56 0 .71.075 2.21.075 3.968 0 3.751-.125 6.471-.175 7.373-.069 1.188-.117 1.464-1.24 1.703-.186.032-.715.037-.953-.028-1.045-.28-1.143-.425-1.237-.9-.126-.645-.075-5.321-.075-8.79 0-3.183.148-4.649.223-5.24 0-.096-.147-.287-.223-.238-.653.402-1.387.545-2.508.925-.265.071-.339.24-.339.332 0 .095.247.229.604.359.361.127.466.343.466.537 0 .71.076 2.21.076 3.968 0 3.751-.122 6.458-.174 7.363-.069 1.186-.121 1.615-1.239 1.852-.27.047-.432.091-.432.256 0 .191.091.197.576.197.512 0 1.582-.07 2.14-.07.439 0 1.486-.058 2.072-.058h1.169c.512 0 1.583.058 2.144.058.428 0 1.438.066 2.024.07 1.443.1 3.854.216 4.521.216.753 0 1.589-.265 2.013-.548.581-.427 1.338-1.234 1.275-2.329-.068-1.069-.648-1.88-2.06-2.661M24.687 15.857c-.632-.141-.948-.327-.948-.924-.025-1.429-.073-3.033-.097-4.53 0-1.021-.22-1.924-.707-2.567-.511-.687-1.362-1.09-2.579-1.09-1.023 0-2.068.497-3.065 1.377-.027.022-.17 0-.17-.143 0-.69.095-5.384.338-7.097 0-.07-.047-.26-.146-.26-.145 0-.365.119-.461.168-.504.326-1.345.674-2.353.764l-9.498-.002c-2.088 0-3.679-.118-4.472.723-.696.737-.525 1.294-.47 1.841.053.542.808.534.878.018.074-.512.071-.583.167-.826.093-.242.32-.433.866-.433H6.1v10.35c-.089 1.699-.037 2.143-1.886 2.555-.26.053-.459.159-.459.354 0 .167.199.325.775.325.375 0 1.591-.197 3.03-.197 1.267 0 2.8.141 3.03.141.289 0 .673-.028.673-.338 0-.194-.27-.285-.643-.371-1.785-.394-1.677-.731-1.824-1.995-.052-.48-.081-1.447-.093-2.528V2.876h5.528c.487.042 1.098.187 1.159.717.098.689.075 1.329.075 2.136 0 6.084-.172 7.755-.244 8.753-.074.879-.316 1.139-.949 1.352-.513.143-.625.205-.625.323 0 .236.261.257.477.257.416 0 1.291-.073 1.852-.073.584 0 1.802.049 1.994.049.343 0 .538-.018.538-.232 0-.118-.124-.203-.464-.3-.56-.141-.902-.285-.949-1.066-.026-.859-.026-4.08.047-5.077.026-.737.342-1.117.392-1.162.095-.095.897-.549 1.945-.549.949 0 1.583.331 1.971.785.269.308.389 1.067.389 2.373 0 .382.051 3.129 0 3.581-.097.903-.233 1.012-.528 1.164-.268.139-.456.143-.456.287 0 .168.064.196.432.196.704 0 .943-.049 1.503-.049.827 0 1.095.073 1.922.073.463 0 .59-.042.59-.257 0-.144-.127-.203-.615-.3M170.309 7.027a1.69 1.69 0 0 0-1.69 1.693 1.69 1.69 0 1 0 3.381 0c0-.935-.757-1.693-1.691-1.693m0 3.135c-.784 0-1.42-.648-1.42-1.442 0-.795.636-1.444 1.42-1.444a1.44 1.44 0 0 1 1.427 1.444 1.439 1.439 0 0 1-1.427 1.442"></path><path fill="#FFF" d="M170.575 8.855c.228-.072.396-.24.396-.51 0-.314-.262-.556-.584-.556h-.63v1.854h.256v-.755h.281l.425.756h.298l-.442-.789zm-.561-.187v-.65h.347c.204 0 .35.14.35.328 0 .186-.146.323-.35.323h-.347z"></path></svg>
